<?xml version="1.0" encoding="UTF-8"?>
<svg xmlns="http://www.w3.org/2000/svg" xmlns:xlink="http://www.w3.org/1999/xlink" width="99.2126pt" height="99.2126pt" viewBox="0 0 99.2126 99.2126" version="1.1">
<defs>
<clipPath id="clip1">
  <path d="M 0 0 L 99.210938 0 L 99.210938 99.210938 L 0 99.210938 Z M 0 0 "/>
</clipPath>
</defs>
<g id="surface1">
<g clip-path="url(#clip1)" clip-rule="nonzero">
<!-- <path style=" stroke:none;fill-rule:nonzero;fill:rgb(100%,100%,100%);fill-opacity:1;" d="M 0 99.214844 L 99.210938 99.214844 L 99.210938 0 L 0 0 Z M 0 99.214844 "/> -->
</g>
<path style=" stroke:none;fill-rule:nonzero;fill:rgb(7.843018%,29.411316%,90.196228%);fill-opacity:1;" d="M 27.460938 71.484375 L 33.292969 71.484375 L 33.292969 45.730469 L 27.460938 45.730469 Z M 27.460938 71.484375 "/>
<path style=" stroke:none;fill-rule:nonzero;fill:rgb(7.843018%,29.411316%,90.196228%);fill-opacity:1;" d="M 37.914062 71.484375 L 43.75 71.484375 L 43.75 36.183594 L 37.914062 36.183594 Z M 37.914062 71.484375 "/>
<path style=" stroke:none;fill-rule:nonzero;fill:rgb(7.843018%,29.411316%,90.196228%);fill-opacity:1;" d="M 48.371094 71.484375 L 54.203125 71.484375 L 54.203125 55.664062 L 48.371094 55.664062 Z M 48.371094 71.484375 "/>
<path style=" stroke:none;fill-rule:nonzero;fill:rgb(7.843018%,29.411316%,90.196228%);fill-opacity:1;" d="M 58.824219 71.484375 L 64.660156 71.484375 L 64.660156 55.664062 L 58.824219 55.664062 Z M 58.824219 71.484375 "/>
<path style=" stroke:none;fill-rule:nonzero;fill:rgb(7.843018%,29.411316%,90.196228%);fill-opacity:1;" d="M 61.007812 46.421875 C 56.277344 46.421875 52.429688 42.574219 52.429688 37.847656 C 52.429688 33.117188 56.277344 29.269531 61.007812 29.269531 L 61.007812 37.847656 L 69.585938 37.847656 C 69.585938 42.574219 65.738281 46.421875 61.007812 46.421875 M 61.007812 23.433594 C 53.0625 23.433594 46.597656 29.898438 46.597656 37.847656 C 46.597656 45.792969 53.0625 52.257812 61.007812 52.257812 C 68.953125 52.257812 75.417969 45.792969 75.417969 37.847656 C 75.417969 29.898438 68.953125 23.433594 61.007812 23.433594 "/>
</g>
</svg>
